<svg width="165" height="59" viewBox="0 0 165 59" fill="none" xmlns="http://www.w3.org/2000/svg">
<g clip-path="url(#clip0_74_2)">
<mask id="mask0_74_2" style="mask-type:luminance" maskUnits="userSpaceOnUse" x="8" y="1" width="51" height="51">
<path d="M8.54419 1.70883H58.1855V51.1953H8.54419V1.70883Z" fill="white"/>
</mask>
<g mask="url(#mask0_74_2)">
<path d="M33.3691 48.9212C20.9667 48.9212 10.9128 38.8617 10.9128 26.4506C10.9128 14.0396 20.9667 3.97993 33.3691 3.97993C45.7715 3.97993 55.8283 14.0396 55.8283 26.4506C55.8283 38.8617 45.7715 48.9212 33.3691 48.9212ZM57.1589 28.3002C56.984 28.1654 56.6571 27.9245 56.6025 27.807C56.6714 27.698 57.004 27.503 57.2076 27.3855C57.6751 27.113 58.1195 26.8549 58.1195 26.4506C58.1195 26.0462 57.6751 25.7882 57.2076 25.5158C57.004 25.3953 56.6714 25.2032 56.6025 25.0971C56.6571 24.9795 56.9696 24.7444 57.1589 24.601C57.5919 24.2798 57.9991 23.9729 57.9532 23.5773C57.9073 23.1758 57.4371 22.9721 56.9409 22.7514C56.7258 22.6596 56.3731 22.5047 56.29 22.4044C56.333 22.281 56.614 22.0143 56.786 21.8509C57.1789 21.481 57.546 21.1283 57.4542 20.7412C57.3625 20.3454 56.8749 20.1963 56.3559 20.0414C56.1294 19.9726 55.7595 19.8608 55.6706 19.7691C55.6964 19.6429 55.9459 19.3446 56.0978 19.1639C56.442 18.7481 56.7689 18.3582 56.6312 17.9797C56.4936 17.6011 55.9889 17.5093 55.4583 17.4147C55.2261 17.3717 54.8447 17.3058 54.7443 17.2255C54.7558 17.0964 54.968 16.7724 55.0971 16.5717C55.3924 16.1214 55.6706 15.6942 55.4899 15.3357C55.3092 14.9744 54.7988 14.9428 54.2597 14.9113C54.0245 14.8969 53.6374 14.874 53.5256 14.8052C53.5256 14.6762 53.6976 14.3292 53.8009 14.1198C54.0418 13.6352 54.2683 13.1764 54.0475 12.8438C53.8267 12.5053 53.3163 12.534 52.7771 12.5627C52.542 12.5771 52.1548 12.5971 52.0402 12.5455C52.0201 12.4164 52.152 12.0523 52.2323 11.8286C52.413 11.321 52.5879 10.8393 52.3269 10.5353C52.0717 10.2256 51.567 10.3116 51.0336 10.4062C50.8014 10.4464 50.42 10.5124 50.2967 10.4722C50.2651 10.346 50.354 9.96753 50.4056 9.73812C50.5289 9.21044 50.6465 8.71437 50.354 8.43908C50.0615 8.16092 49.5711 8.30717 49.055 8.45915C48.8256 8.52797 48.4557 8.63694 48.3295 8.61114C48.2807 8.49069 48.3266 8.10643 48.3524 7.87129C48.4155 7.33504 48.4728 6.82748 48.1488 6.5866C47.8276 6.34572 47.3574 6.54645 46.8612 6.75866C46.6462 6.85042 46.2849 7.00527 46.1587 6.9938C46.0985 6.8791 46.0984 6.49197 46.0956 6.25396C46.0956 5.71484 46.0956 5.20441 45.7458 5.00081C45.3959 4.80007 44.9572 5.05529 44.4868 5.32198C44.2833 5.43955 43.9449 5.63168 43.8159 5.63742C43.7441 5.53131 43.6983 5.14705 43.6696 4.91191C43.6065 4.3728 43.5434 3.8681 43.1735 3.70751C42.8065 3.54693 42.3964 3.85089 41.9633 4.17207C41.7712 4.31258 41.4586 4.54485 41.3297 4.56206C41.2465 4.46743 41.1547 4.09177 41.1002 3.86236C40.974 3.33472 40.8536 2.83862 40.4693 2.72105C40.085 2.60635 39.7123 2.9562 39.3223 3.32325C39.1588 3.47523 38.8663 3.7534 38.7402 3.7878C38.6427 3.70177 38.5107 3.34046 38.4276 3.11678C38.2412 2.60921 38.0634 2.13032 37.6677 2.0615C37.2719 1.98981 36.945 2.37981 36.598 2.79274C36.4432 2.9734 36.1937 3.27164 36.0733 3.32038C35.9701 3.24582 35.7951 2.90171 35.689 2.69237C35.4452 2.21062 35.213 1.7518 34.8086 1.72886C34.4072 1.70592 34.1291 2.13032 33.8337 2.57767C33.7075 2.76406 33.4839 3.10245 33.3691 3.16266C33.2573 3.10245 33.0308 2.76406 32.9074 2.57767C32.6121 2.13032 32.3253 1.70592 31.9325 1.72886C31.5281 1.7518 31.2958 2.21062 31.0521 2.69237C30.9431 2.90171 30.771 3.24582 30.6649 3.32038C30.5445 3.27164 30.295 2.9734 30.1431 2.79274C29.7932 2.37981 29.4663 1.98981 29.0705 2.0615C28.6748 2.13032 28.497 2.60921 28.3107 3.11678C28.2275 3.34046 28.0956 3.70177 28.0009 3.7878C27.8747 3.7534 27.5909 3.48671 27.4188 3.32612C27.026 2.9562 26.656 2.60635 26.2717 2.72105C25.8846 2.83862 25.7642 3.33472 25.6381 3.8595C25.5835 4.08891 25.4917 4.46743 25.4086 4.56206C25.2796 4.54485 24.967 4.31258 24.7777 4.17207C24.3447 3.85089 23.9346 3.54693 23.5676 3.70751C23.1948 3.8681 23.1346 4.37566 23.0715 4.91191C23.0428 5.14705 22.9969 5.53131 22.9252 5.63742C22.7934 5.63168 22.4578 5.43669 22.2514 5.32198C21.784 5.05529 21.3395 4.80007 20.9925 5.00367C20.6455 5.20441 20.6427 5.71484 20.6427 6.25396C20.6427 6.49197 20.6398 6.8791 20.5795 6.9938C20.4534 7.0024 20.0949 6.85042 19.877 6.75579C19.3809 6.54645 18.9135 6.34572 18.5894 6.5866C18.2683 6.82748 18.3256 7.33504 18.3887 7.87129C18.4145 8.10643 18.4575 8.49069 18.4116 8.61114C18.2854 8.63981 17.9126 8.52797 17.6861 8.45915C17.1699 8.30717 16.6796 8.16092 16.3871 8.43908C16.0946 8.71437 16.2093 9.21044 16.3326 9.73812C16.3871 9.96753 16.4731 10.346 16.4444 10.4722C16.3211 10.5095 15.9369 10.4464 15.7075 10.4034C15.1741 10.3116 14.6694 10.2256 14.4113 10.5324C14.1532 10.8421 14.3281 11.321 14.5088 11.8286C14.5891 12.0523 14.7181 12.4164 14.7009 12.5455C14.5834 12.5971 14.1962 12.5771 13.9611 12.5627C13.4248 12.534 12.9144 12.5053 12.6936 12.838C12.4699 13.1764 12.6965 13.6323 12.9373 14.1169C13.0434 14.3292 13.2155 14.6762 13.2126 14.8052C13.1037 14.874 12.7165 14.8969 12.4814 14.9113C11.9394 14.9428 11.4318 14.9744 11.2512 15.3357C11.0705 15.6942 11.3487 16.1186 11.6412 16.5717C11.7731 16.7695 11.9853 17.0964 11.9968 17.2255C11.8935 17.3029 11.5121 17.3717 11.2827 17.4147C10.7494 17.5093 10.2475 17.6011 10.107 17.9797C9.97223 18.3553 10.2963 18.7453 10.6433 19.1611C10.7924 19.3417 11.0418 19.6429 11.0705 19.7691C10.9788 19.8608 10.6088 19.9698 10.3852 20.0386C9.86613 20.1963 9.37576 20.3454 9.284 20.7412C9.19224 21.1283 9.55929 21.481 9.95216 21.8509C10.1242 22.0143 10.4081 22.2839 10.4483 22.4044C10.368 22.5047 10.0124 22.6596 9.7973 22.7543C9.30408 22.9721 8.83379 23.1758 8.7879 23.5743C8.73915 23.9729 9.14922 24.2798 9.57937 24.601C9.76863 24.7444 10.0812 24.9766 10.1386 25.0942C10.0697 25.2032 9.73708 25.3953 9.53349 25.5158C9.06319 25.7882 8.62158 26.0462 8.62158 26.4506C8.62158 26.8549 9.06319 27.113 9.53349 27.3855C9.73708 27.503 10.0697 27.698 10.1386 27.807C10.0812 27.9245 9.75716 28.1654 9.57937 28.3002C9.14636 28.6213 8.73915 28.9282 8.7879 29.3268C8.83379 29.7254 9.30408 29.9319 9.80017 30.147C10.0124 30.2416 10.368 30.3964 10.4483 30.4968C10.4081 30.6201 10.1242 30.8868 9.95216 31.0502C9.55929 31.4231 9.19224 31.7729 9.284 32.1629C9.37576 32.5557 9.86613 32.7048 10.3852 32.8626C10.6088 32.9285 10.9788 33.0432 11.0705 33.1321C11.0418 33.2583 10.7952 33.5594 10.6433 33.7401C10.2963 34.1559 9.97223 34.5459 10.107 34.9244C10.2475 35.3029 10.7494 35.3918 11.2827 35.4864C11.5121 35.5295 11.8935 35.5983 11.9968 35.6786C11.9853 35.8047 11.7731 36.1316 11.6412 36.3295C11.3487 36.7826 11.0705 37.207 11.2512 37.5683C11.4318 37.9268 11.9423 37.9583 12.4814 37.9928C12.7165 38.0042 13.1008 38.0301 13.2126 38.096C13.2155 38.225 13.0434 38.572 12.9373 38.7842C12.6965 39.2689 12.4699 39.7247 12.6907 40.0603C12.9115 40.3958 13.422 40.3671 13.9611 40.3385C14.1962 40.3241 14.5834 40.304 14.7009 40.3585C14.7181 40.4847 14.5891 40.8489 14.5088 41.0697C14.3253 41.5801 14.1532 42.059 14.4113 42.3687C14.6694 42.6756 15.1741 42.5895 15.7046 42.4978C15.9369 42.4576 16.3212 42.3917 16.4416 42.4318C16.476 42.5551 16.3871 42.9336 16.3326 43.1659C16.2093 43.6907 16.0946 44.1868 16.3871 44.4621C16.6796 44.7403 17.1671 44.594 17.6832 44.442C17.9126 44.3732 18.2854 44.2642 18.4116 44.29C18.4575 44.4105 18.4145 44.7947 18.3887 45.0299C18.3256 45.5661 18.2683 46.0737 18.5894 46.3146C18.9135 46.5554 19.3809 46.3547 19.877 46.1425C20.0949 46.0507 20.4505 45.9016 20.5795 45.9073C20.6398 46.0221 20.6427 46.4092 20.6427 46.6472C20.6427 47.1892 20.6455 47.6967 20.9925 47.9004C21.3395 48.1011 21.784 47.8458 22.2514 47.5792C22.4578 47.4616 22.7934 47.2695 22.9224 47.2638C22.9941 47.3698 23.0428 47.757 23.0715 47.9921C23.1346 48.5283 23.1948 49.033 23.5647 49.1965C23.9346 49.3513 24.3447 49.0503 24.7777 48.7291C24.967 48.5886 25.2796 48.3592 25.4086 48.3391C25.4917 48.4337 25.5835 48.8123 25.6381 49.0417C25.7642 49.5693 25.8846 50.0654 26.2717 50.1801C26.656 50.2948 27.026 49.945 27.4188 49.5779C27.5909 49.4145 27.8747 49.1478 28.0009 49.1134C28.0956 49.1994 28.2275 49.5636 28.3107 49.7844C28.497 50.292 28.6748 50.7708 29.0705 50.8425C29.4663 50.9113 29.7932 50.5214 30.1402 50.1113C30.295 49.9278 30.5474 49.6295 30.6678 49.5836C30.771 49.6553 30.946 49.9994 31.0521 50.2088C31.2958 50.6934 31.5281 51.1493 31.9325 51.1723C31.941 51.1752 31.9525 51.1752 31.9611 51.1752C32.3454 51.1752 32.6207 50.7594 32.9074 50.3235C33.0393 50.1228 33.2573 49.7987 33.3691 49.7357C33.4839 49.7987 33.7075 50.1371 33.8337 50.3235C34.1291 50.7737 34.4101 51.1923 34.8086 51.1723C35.213 51.1493 35.4452 50.6934 35.689 50.2088C35.7951 49.9994 35.9701 49.6553 36.0733 49.5836C36.1937 49.6295 36.4547 49.9421 36.598 50.1113C36.945 50.5214 37.2719 50.9113 37.6677 50.8425C38.0634 50.7708 38.2412 50.292 38.4276 49.7844C38.5107 49.5636 38.6427 49.1994 38.7402 49.1134C38.8663 49.1478 39.1588 49.4259 39.3223 49.5779C39.7123 49.945 40.085 50.2948 40.4693 50.1801C40.8536 50.0654 40.974 49.5664 41.1002 49.0417C41.1547 48.8123 41.2465 48.4337 41.3325 48.3391C41.4586 48.3563 41.7741 48.5886 41.9633 48.7291C42.3964 49.0503 42.8065 49.3514 43.1735 49.1937C43.5434 49.033 43.6065 48.5283 43.6696 47.9893C43.6983 47.7541 43.7441 47.3698 43.8159 47.2638C43.9449 47.2695 44.2833 47.4645 44.4868 47.5792C44.9572 47.8488 45.3959 48.1011 45.7458 47.9004C46.0927 47.6967 46.0956 47.1892 46.0956 46.6472C46.0956 46.412 46.0985 46.0221 46.1587 45.9102C46.2849 45.8988 46.6462 46.0507 46.8612 46.1453C47.3574 46.3576 47.8276 46.5583 48.1488 46.3146C48.4728 46.0737 48.4155 45.5661 48.3524 45.0299C48.3266 44.7947 48.2807 44.4105 48.3295 44.29C48.4557 44.2642 48.8256 44.3732 49.0521 44.442C49.5711 44.594 50.0615 44.7403 50.354 44.4621C50.6465 44.1868 50.5289 43.6907 50.4056 43.1659C50.3511 42.9336 50.2622 42.558 50.2967 42.4318C50.42 42.3917 50.8014 42.4576 51.0336 42.4978C51.567 42.5895 52.0689 42.6784 52.3269 42.3687C52.5879 42.0619 52.413 41.5801 52.2323 41.0726C52.152 40.8518 52.0201 40.4847 52.0402 40.3585C52.1548 40.304 52.542 40.327 52.7771 40.3385C53.3163 40.37 53.8267 40.3987 54.0475 40.0603C54.2683 39.7247 54.0418 39.2689 53.8009 38.7842C53.6976 38.572 53.5256 38.225 53.5256 38.096C53.6374 38.0301 54.0217 38.0042 54.2597 37.9928C54.7988 37.9583 55.3092 37.9268 55.487 37.5683C55.6706 37.207 55.3924 36.7826 55.0971 36.3295C54.968 36.1316 54.7558 35.8047 54.7443 35.6786C54.8447 35.5983 55.2261 35.5295 55.4583 35.4864C55.9889 35.3918 56.4907 35.3029 56.6312 34.9244C56.7689 34.5459 56.442 34.153 56.0978 33.7401C55.9459 33.5594 55.6964 33.2583 55.6706 33.1321C55.7623 33.0432 56.1294 32.9285 56.3559 32.8626C56.8721 32.7048 57.3625 32.5557 57.4542 32.1629C57.546 31.7729 57.1789 31.4231 56.786 31.0502C56.614 30.8868 56.333 30.6201 56.29 30.4968C56.3731 30.3964 56.7258 30.2416 56.9381 30.1498C57.4371 29.9319 57.9073 29.7254 57.9532 29.3268C57.9991 28.9282 57.5919 28.6213 57.1589 28.3002Z" fill="#282D30"/>
</g>
<path d="M33.3691 11.1289C24.9268 11.1289 18.0589 18.0026 18.0589 26.4506C18.0589 34.8986 24.9268 41.7752 33.3691 41.7752C41.8142 41.7752 48.6822 34.8986 48.6822 26.4506C48.6822 18.0026 41.8142 11.1289 33.3691 11.1289ZM33.3691 42.515C24.5196 42.515 17.3162 35.3087 17.3162 26.4506C17.3162 17.5954 24.5196 10.3891 33.3691 10.3891C42.2214 10.3891 49.4249 17.5954 49.4249 26.4506C49.4249 35.3087 42.2214 42.515 33.3691 42.515Z" fill="#BA9563"/>
<mask id="mask1_74_2" style="mask-type:luminance" maskUnits="userSpaceOnUse" x="22" y="30" width="22" height="3">
<path d="M22.8306 30.494H43.9449V32.7078H22.8306V30.494Z" fill="white"/>
</mask>
<g mask="url(#mask1_74_2)">
<path d="M43.9278 30.6517C43.9278 30.6517 39.2077 32.7107 33.3835 32.7107C27.5623 32.7107 22.8394 30.6517 22.8394 30.6517C22.8394 30.6517 27.5623 30.6517 33.3835 30.6517C39.2077 30.6517 43.9278 30.6517 43.9278 30.6517Z" fill="#BA9563"/>
</g>
<path d="M27.8203 25.1401C28.6749 27.46 29.2943 27.9791 30.9833 28.8737C31.4651 29.129 32.0559 29.4129 32.5835 29.5361C31.4393 29.8315 27.4963 28.802 27.8203 25.1401ZM39.9934 23.4195H26.2575C26.2575 23.4195 25.1449 31.2854 33.1254 31.2854C41.1089 31.2854 39.9934 23.4195 39.9934 23.4195Z" fill="#282D30"/>
<path d="M38.4448 26.1639C38.4448 26.0693 38.4964 25.9775 38.5423 25.8943C38.5911 25.8112 38.6427 25.7309 38.7029 25.6592C38.8176 25.5044 38.9495 25.3696 39.0843 25.2348C39.3596 24.971 39.6549 24.733 40.022 24.538C40.1137 24.4892 40.2198 24.4462 40.3317 24.4089C40.3948 24.3946 40.4492 24.3745 40.5238 24.3659C40.6013 24.3602 40.6786 24.3459 40.759 24.3573C41.0801 24.3802 41.3669 24.5637 41.5418 24.776C41.7225 24.9911 41.8171 25.2377 41.8601 25.4785C41.9003 25.7195 41.9003 25.9632 41.8544 26.1926C41.7655 26.6514 41.5218 27.0672 41.1949 27.3568C40.8823 27.6522 40.4694 27.8329 40.0994 27.9246C39.9159 27.9734 39.741 28.0077 39.6951 28.045C39.6176 28.0995 39.5574 28.2228 39.5603 28.3576C39.5574 28.4924 39.6091 28.6301 39.7123 28.6931C39.7697 28.7275 39.8184 28.7477 39.8786 28.7275C39.9359 28.7132 39.9847 28.6731 40.0019 28.6072V28.6014C40.0105 28.567 40.0478 28.5412 40.085 28.5526C40.1166 28.5583 40.1367 28.587 40.1367 28.6157C40.1425 28.7333 40.0679 28.8537 39.9618 28.9111C39.9102 28.9426 39.8499 28.9598 39.784 28.9627C39.7496 28.9655 39.7209 28.9598 39.6922 28.9541C39.6635 28.9512 39.6349 28.9455 39.6062 28.934C39.3739 28.848 39.2363 28.6272 39.1875 28.4064C39.1388 28.1884 39.1703 27.9275 39.3395 27.7124C39.3825 27.6637 39.4312 27.6121 39.4914 27.5719C39.546 27.5375 39.5947 27.5088 39.6435 27.4859L39.8929 27.3625C40.498 27.0872 40.868 26.5654 40.8937 26.0549C40.9139 25.8054 40.8278 25.5531 40.7332 25.4212C40.6873 25.3524 40.6586 25.318 40.6213 25.2893C40.6099 25.2548 40.4492 25.2635 40.3059 25.295C40.0019 25.3553 39.6692 25.4842 39.3481 25.6219C39.1875 25.6908 39.0269 25.7682 38.8692 25.8513C38.7201 25.9431 38.5509 26.0148 38.4448 26.1639Z" fill="#282D30"/>
<path d="M35.6517 31.3571H30.599C30.5387 31.3571 30.49 31.3084 30.49 31.2482V30.5915C30.49 30.5313 30.5387 30.4825 30.599 30.4825H35.6517C35.7119 30.4825 35.7607 30.5313 35.7607 30.5915V31.2482C35.7607 31.3084 35.7119 31.3571 35.6517 31.3571Z" fill="#282D30"/>
<mask id="mask2_74_2" style="mask-type:luminance" maskUnits="userSpaceOnUse" x="30" y="12" width="5" height="11">
<path d="M30.6421 12.9757H34.3413V22.4474H30.6421V12.9757Z" fill="white"/>
</mask>
<g mask="url(#mask2_74_2)">
<path d="M32.781 22.4331C32.9874 21.8538 33.9395 21.4782 33.2541 20.5118C32.7609 19.815 31.7659 19.6687 31.2239 19.0149C30.7479 18.4385 30.659 17.3315 30.8224 16.738C31.3214 14.9056 33.8248 14.9945 33.4491 12.9757C33.4692 13.0761 34.2664 14.16 33.042 15.2525C32.1128 16.0813 31.9465 17.3459 32.3136 18.0485C32.7667 18.9145 34.1087 19.055 34.1603 20.7957C34.189 21.7449 33.3516 21.8882 32.781 22.4331Z" fill="#BA9563"/>
</g>
<mask id="mask3_74_2" style="mask-type:luminance" maskUnits="userSpaceOnUse" x="12" y="25" width="3" height="5">
<path d="M12.4011 25.3696H14.7841V29.8402H12.4011V25.3696Z" fill="white"/>
</mask>
<g mask="url(#mask3_74_2)">
<path d="M12.4011 27.606C12.4011 28.8363 13.1955 29.8399 14.1733 29.8399C14.2966 29.8399 14.4113 29.8256 14.526 29.7941C14.5232 29.774 14.5232 29.751 14.5289 29.7367C14.612 29.5245 14.6493 29.2951 14.6493 29.0342C14.6493 28.3258 14.3683 27.9818 14.0729 27.6147C13.7862 27.262 13.488 26.9006 13.488 26.1808C13.488 25.9228 13.5224 25.702 13.5998 25.4926C12.9058 25.7937 12.4011 26.6282 12.4011 27.606Z" fill="#BA9563"/>
</g>
<mask id="mask4_74_2" style="mask-type:luminance" maskUnits="userSpaceOnUse" x="13" y="25" width="3" height="5">
<path d="M13.5798 25.3696H15.9485V29.7598H13.5798V25.3696Z" fill="white"/>
</mask>
<g mask="url(#mask4_74_2)">
<path d="M14.1734 25.3696C14.0673 25.3696 13.9669 25.381 13.8665 25.4039C13.8665 25.4097 13.8636 25.4126 13.8636 25.4126C13.7489 25.6391 13.7002 25.8829 13.7002 26.1782C13.7002 26.8205 13.9468 27.1274 14.2393 27.4801C14.5318 27.8385 14.8616 28.2457 14.8616 29.0257C14.8616 29.2753 14.83 29.4989 14.7641 29.7082C15.4523 29.4072 15.9484 28.5756 15.9484 27.6063C15.9484 26.3732 15.1541 25.3696 14.1734 25.3696Z" fill="#BA9563"/>
</g>
<mask id="mask5_74_2" style="mask-type:luminance" maskUnits="userSpaceOnUse" x="50" y="25" width="4" height="5">
<path d="M50.8875 25.3696H53.2503V29.8402H50.8875V25.3696Z" fill="white"/>
</mask>
<g mask="url(#mask5_74_2)">
<path d="M50.8875 27.606C50.8875 28.8363 51.6818 29.8399 52.6597 29.8399C52.7801 29.8399 52.8977 29.8256 53.0095 29.7941C53.0066 29.774 53.0066 29.751 53.0152 29.7367C53.0955 29.5245 53.1357 29.2951 53.1357 29.0342C53.1357 28.3258 52.8546 27.9818 52.5564 27.6147C52.2696 27.262 51.9714 26.9006 51.9714 26.1808C51.9714 25.9228 52.0087 25.702 52.0861 25.4926C51.3893 25.7937 50.8875 26.6282 50.8875 27.606Z" fill="#BA9563"/>
</g>
<mask id="mask6_74_2" style="mask-type:luminance" maskUnits="userSpaceOnUse" x="52" y="25" width="3" height="5">
<path d="M52.0173 25.3696H54.4318V29.7598H52.0173V25.3696Z" fill="white"/>
</mask>
<g mask="url(#mask6_74_2)">
<path d="M52.6599 25.3696C52.5538 25.3696 52.4505 25.381 52.353 25.4039C52.353 25.4097 52.3473 25.4126 52.3473 25.4126C52.2354 25.6391 52.1838 25.8829 52.1838 26.1782C52.1838 26.8205 52.4334 27.1274 52.723 27.4801C53.0183 27.8385 53.3481 28.2457 53.3481 29.0257C53.3481 29.2753 53.3166 29.4989 53.2477 29.7082C53.9359 29.4072 54.432 28.5756 54.432 27.6063C54.432 26.3732 53.6377 25.3696 52.6599 25.3696Z" fill="#BA9563"/>
</g>
<path d="M19.5902 15.6196L19.6791 15.5193L18.208 12.9212L20.9781 14.0539L21.067 13.9536L18.7242 9.82135L18.5321 10.0364L20.2956 13.1334L17.7635 12.0896C17.0036 11.7742 16.6108 12.1069 16.3641 12.3821C16.324 12.428 16.2466 12.537 16.2236 12.5628L16.324 12.6516C16.6165 12.3706 16.8373 12.362 17.3391 12.5657L17.7922 12.7521L18.9077 14.6991L16.3728 13.6553C15.6157 13.3399 15.22 13.6726 14.9762 13.9479C14.9361 13.9937 14.8586 14.1027 14.8357 14.1285L14.9361 14.2174C15.2286 13.9393 15.4494 13.9277 15.9512 14.1314L19.5902 15.6196Z" fill="#243239"/>
<path d="M24.9614 7.55584C24.7635 7.206 24.5714 6.85901 24.3248 6.75864C23.9692 6.621 23.3641 6.68122 22.716 7.04541C21.7152 7.60459 21.4256 8.99825 22.0794 10.1683C22.6988 11.2723 23.8946 11.7655 25.0073 11.1432C25.7041 10.7532 26.1113 10.217 26.0769 9.27639L25.9106 9.25349C25.8819 9.97035 25.6382 10.4837 25.0531 10.8106C24.0523 11.3698 23.1519 10.7131 22.6644 9.84136C21.8816 8.43907 22.2543 7.61033 23.0229 7.18018C23.671 6.816 24.2703 6.93644 24.8438 7.6218L24.9614 7.55584Z" fill="#243239"/>
<path d="M28.999 7.24327C29.8163 7.06261 30.3152 7.28916 30.4471 7.88562C30.579 8.47921 30.1976 8.90075 29.4062 9.07569C29.2025 9.12157 28.9789 9.13589 28.7638 9.12444L28.3767 7.38092L28.999 7.24327ZM28.3193 7.11997L27.9408 5.4166C28.0641 5.35638 28.2534 5.27896 28.4168 5.24168C28.9416 5.12697 29.6528 5.23594 29.7933 5.86395C29.9223 6.45468 29.4578 6.86761 28.9416 6.98232L28.3193 7.11997ZM26.6963 5.38219L26.7249 5.5141L26.8568 5.48543C27.2497 5.3994 27.373 5.64601 27.459 6.03887L28.2447 9.57467L29.5553 9.28499C30.3726 9.10432 31.3102 8.68855 31.0923 7.70783C30.9776 7.17731 30.6622 6.84754 29.7818 6.89916C30.3324 6.56365 30.5102 6.15358 30.4213 5.76072C30.1976 4.74557 29.0879 4.85455 28.3996 5.00653L26.6963 5.38219Z" fill="#243239"/>
<path d="M39.8071 6.78458C39.896 6.39172 39.9849 6.00746 39.8673 5.76659C39.6981 5.42534 39.2106 5.06402 38.4851 4.89769C37.3668 4.63961 36.2169 5.47695 35.9157 6.78458C35.6318 8.01766 36.1881 9.18478 37.4298 9.47152C38.2098 9.65219 38.8693 9.52893 39.4773 8.80913L39.3683 8.68009C38.8665 9.1905 38.3417 9.4056 37.6879 9.2565C36.5695 8.99839 36.3458 7.90869 36.5695 6.9337C36.9308 5.37085 37.7653 5.00667 38.6199 5.20453C39.3454 5.37085 39.7096 5.86121 39.6752 6.75305L39.8071 6.78458Z" fill="#243239"/>
<path d="M42.4881 10.6586C42.2701 10.7791 42.0235 10.868 41.7339 10.7102C41.4385 10.5525 41.2693 10.2313 41.4758 9.8471C41.6651 9.49436 42.1468 9.44848 42.7375 9.76393L42.9153 9.86142L42.4881 10.6586ZM42.7175 11.5046L43.5749 9.91016C44.1456 8.84628 43.7441 8.4018 43.2078 8.11217C42.8523 7.92291 42.4365 7.77666 42.2099 7.84262C41.9834 7.91144 41.8888 8.08923 41.7769 8.2957L42.0436 8.43908C42.3361 8.10357 42.6315 8.1093 42.9612 8.28709C43.3168 8.47636 43.486 8.79753 43.0415 9.62342L42.8637 9.52879C42.0666 9.10147 41.2607 8.90076 40.9137 9.54597C40.5668 10.1912 41.0026 10.6586 41.3267 10.8335C41.774 11.0744 42.1296 11.0372 42.3275 10.954L42.3562 10.9683L42.4221 11.3468L42.7175 11.5046Z" fill="#243239"/>
<path d="M47.9165 10.1884C48.1373 10.3748 48.2376 10.5899 48.2089 10.8307H48.4699C48.5015 10.6816 48.5158 10.5727 48.4872 10.4493C48.4527 10.3347 48.3265 10.1826 48.1172 10.0048C47.6813 9.63492 47.0906 9.39978 46.4855 10.1167L46.3536 10.2715L45.9951 9.96762L45.8231 10.1712L46.1815 10.4752L44.3176 12.6775L44.7793 13.0675L46.6404 10.8651L47.3573 11.4731L47.5322 11.2666L46.8153 10.6616L46.9443 10.5067C47.3745 9.99911 47.687 9.99339 47.9165 10.1884Z" fill="#243239"/>
<path d="M49.4623 15.6713C50.2108 15.092 50.3656 14.4296 49.8093 13.707C49.296 13.0445 48.4042 13.0961 47.6873 13.6496C46.9732 14.2059 46.675 15.0289 47.2485 15.7717C47.5611 16.1731 47.9569 16.3681 48.5447 16.2964V16.1272C48.1289 16.1502 47.8106 16.0584 47.5439 15.7143C47.1941 15.2612 47.4149 14.6676 47.997 14.2174L49.2416 15.8233L49.4623 15.6713ZM48.212 14.0511C48.7626 13.6267 49.3505 13.5521 49.5971 13.8704C49.8896 14.2489 49.6889 14.6906 49.0723 15.1665L48.212 14.0511Z" fill="#243239"/>
<path d="M19.9775 39.7019L19.4126 40.3012L19.2061 40.1091L20.6514 38.575L21.222 39.1083C21.3883 39.266 21.4772 39.4323 21.4916 39.6073C21.5059 39.7851 21.4485 39.9427 21.3166 40.0833C21.1761 40.2324 21.0213 40.3041 20.8521 40.2955C20.6829 40.2898 20.5109 40.2037 20.3388 40.0402L19.9775 39.7019ZM20.1352 39.5355L20.4994 39.874C20.6084 39.9772 20.7144 40.0316 20.8177 40.0345C20.9209 40.0402 21.0184 39.9944 21.1131 39.8969C21.1962 39.8051 21.2364 39.7047 21.2306 39.5958C21.2249 39.4868 21.1732 39.3836 21.0729 39.2832L20.7001 38.9333L20.1352 39.5355Z" fill="#BA9563"/>
<path d="M22.0679 41.4397L21.6722 41.1443L21.1646 41.8296L20.9409 41.6633L22.1998 39.9714L22.759 40.3901C22.9483 40.5306 23.0629 40.6855 23.0974 40.8461C23.1375 41.0095 23.0945 41.173 22.9712 41.3364C22.8938 41.4425 22.7963 41.5142 22.6816 41.5486C22.5669 41.5888 22.4436 41.5888 22.3145 41.5486L22.1769 42.5637L22.1683 42.5781L21.9274 42.3974L22.0679 41.4397ZM21.8098 40.9665L22.1511 41.2217C22.2629 41.3049 22.3718 41.3393 22.478 41.3307C22.5869 41.322 22.6787 41.2676 22.7476 41.1701C22.8278 41.0669 22.8565 40.9637 22.8365 40.8632C22.8135 40.76 22.7446 40.6654 22.6271 40.5765L22.2859 40.3242L21.8098 40.9665Z" fill="#BA9563"/>
<path d="M24.3189 42.7415L23.5332 42.2799L23.1575 42.9222L24.0694 43.4585L23.9518 43.6535L22.7991 42.9767L23.8658 41.1587L25.01 41.8296L24.8924 42.0276L23.992 41.497L23.6479 42.082L24.4336 42.5437L24.3189 42.7415Z" fill="#BA9563"/>
<path d="M25.8274 42.2397L25.793 44.0951L27.0948 42.776L27.4275 42.9193L26.6074 44.8578L26.355 44.7489L26.6762 43.9919L27.0432 43.1918L25.7414 44.4879L25.5434 44.4077L25.5693 42.5724L25.2567 43.3896L24.9355 44.1496L24.6775 44.0435L25.4976 42.1021L25.8274 42.2397Z" fill="#BA9563"/>
<path d="M27.7945 45.2192L27.5278 45.1389L28.1386 43.123L28.4053 43.2032L27.7945 45.2192Z" fill="#BA9563"/>
<path d="M30.5789 43.7137L30.2864 45.1131C30.2463 45.3081 30.1545 45.4543 30.0053 45.5547C29.8591 45.6522 29.6784 45.6866 29.4663 45.6608L29.3974 45.6493C29.168 45.6035 29.0017 45.503 28.8927 45.3539C28.7838 45.2048 28.7522 45.0242 28.7924 44.8091L29.0848 43.404L29.3544 43.4613L29.0648 44.855C29.0361 45.0041 29.0533 45.1302 29.1164 45.2307C29.1824 45.3282 29.2913 45.3941 29.4433 45.4257C29.5953 45.4543 29.7215 45.4371 29.8218 45.374C29.9194 45.3109 29.9853 45.202 30.0169 45.0529L30.3065 43.6563L30.5789 43.7137Z" fill="#BA9563"/>
<path d="M31.5598 43.8399L32.1304 45.6006L32.9362 43.9288L33.2918 43.9546L33.1512 46.0594L32.8788 46.0393L32.9334 45.222L33.0193 44.3417L32.2107 45.9934L31.9985 45.982L31.425 44.2356L31.3934 45.1188L31.3389 45.9361L31.0608 45.9189L31.2013 43.8141L31.5598 43.8399Z" fill="#BA9563"/>
<path d="M36.7242 44.7861C36.75 44.9869 36.7414 45.1647 36.6955 45.3224C36.6525 45.4743 36.5751 45.6005 36.4661 45.6952L36.8819 45.9417L36.7185 46.1368L36.231 45.8443C36.1621 45.8701 36.0905 45.8901 36.013 45.8988C35.8496 45.9217 35.6976 45.8988 35.5571 45.8357C35.4223 45.7697 35.3076 45.6694 35.2187 45.5288C35.1298 45.3883 35.0725 45.2192 35.0438 45.0184L35.0266 44.8721C35.0008 44.6714 35.0122 44.4879 35.061 44.3244C35.1126 44.161 35.1958 44.0291 35.3105 43.9316C35.428 43.8341 35.5685 43.7738 35.7349 43.7509C35.9041 43.7308 36.0561 43.7509 36.1937 43.814C36.3342 43.88 36.4461 43.9832 36.535 44.1294C36.621 44.2728 36.6784 44.4478 36.7041 44.6513L36.7242 44.7861ZM36.4317 44.6858C36.4002 44.4392 36.3256 44.2556 36.2109 44.1352C36.0933 44.0147 35.9442 43.966 35.7636 43.9889C35.5915 44.009 35.4625 44.095 35.3793 44.2384C35.2961 44.3847 35.2703 44.5768 35.3019 44.8148L35.3219 44.9668C35.3507 45.2076 35.4252 45.3912 35.5428 45.5174C35.6603 45.6407 35.8066 45.6923 35.9844 45.6694C36.165 45.6435 36.2941 45.5604 36.3744 45.417C36.4518 45.2736 36.4776 45.0815 36.4518 44.8377L36.4317 44.6858Z" fill="#BA9563"/>
<path d="M38.6399 43.1775L38.9955 44.5682C39.0471 44.7603 39.027 44.9324 38.9352 45.0844C38.8463 45.2364 38.703 45.3482 38.5022 45.4142L38.4305 45.4371C38.2068 45.4945 38.0119 45.4801 37.8456 45.3941C37.685 45.3052 37.576 45.1561 37.5187 44.9467L37.1631 43.5531L37.4298 43.4842L37.7825 44.8694C37.8226 45.0156 37.8915 45.1188 37.9947 45.1819C38.0979 45.245 38.2241 45.2536 38.3761 45.2163C38.5252 45.179 38.6313 45.1074 38.6915 45.0041C38.7517 44.9009 38.7632 44.7776 38.7259 44.6314L38.3703 43.2434L38.6399 43.1775Z" fill="#BA9563"/>
<path d="M40.908 44.0091L40.085 44.3302L40.0994 44.9095L39.8327 45.0127L39.8184 42.7588L40.0478 42.6728L41.559 44.3445L41.2923 44.4478L40.908 44.0091ZM40.0821 44.0808L40.7503 43.8255L40.0592 43.0341L40.0821 44.0808Z" fill="#BA9563"/>
<path d="M42.3647 43.6936L43.248 43.2291L43.3541 43.4326L42.2214 44.0234L41.2493 42.1537L41.4987 42.0247L42.3647 43.6936Z" fill="#BA9563"/>
<path d="M44.2375 42.8879L43.9995 43.0341L42.8782 41.2533L43.1162 41.1042L44.2375 42.8879Z" fill="#BA9563"/>
<path d="M45.0519 39.9972L44.5128 40.4044L45.6426 41.9042L45.4218 42.0706L44.2919 40.5708L43.7528 40.9809L43.6123 40.7973L44.9142 39.8137L45.0519 39.9972Z" fill="#BA9563"/>
<path d="M46.5056 39.7879L46.1787 38.6409L46.411 38.4258L46.7895 39.8854L47.3286 40.456L47.125 40.6482L46.5859 40.0775L45.1521 39.6158L45.3815 39.395L46.5056 39.7879Z" fill="#BA9563"/>
<path d="M26.8596 35.369C26.8596 35.1682 26.7564 35.0621 26.527 34.9273L26.1973 34.7295C25.9993 34.6147 25.899 34.5344 25.899 34.3767C25.899 34.2104 26.051 34.1072 26.2087 34.1072C26.5127 34.1072 26.679 34.2477 26.7421 34.609H26.7909V34.3223C26.7909 34.1158 26.4754 33.9982 26.2087 33.9982C25.899 33.9982 25.6897 34.1789 25.6897 34.457C25.6897 34.6578 25.7757 34.7811 26.0022 34.9187L26.3349 35.1137C26.5299 35.2313 26.6302 35.3259 26.6302 35.4865C26.6302 35.6643 26.4582 35.7589 26.2775 35.7589C25.9736 35.7589 25.7986 35.6127 25.7356 35.2514H25.6897V35.5381C25.6897 35.7417 26.0109 35.8679 26.3005 35.8679C26.6446 35.8679 26.8596 35.67 26.8596 35.369Z" fill="#282D30"/>
<path d="M27.7371 34.8814C27.7371 34.6119 27.6826 34.5574 27.4962 34.5574H27.2554V34.6119H27.307C27.4704 34.6119 27.4962 34.718 27.4962 34.8814V35.8221H27.7371V34.8814ZM27.7228 34.2764C27.7228 34.1818 27.6539 34.1043 27.5708 34.1043C27.4962 34.1043 27.4475 34.1502 27.4475 34.2248C27.4475 34.3194 27.5163 34.3968 27.5994 34.3968C27.674 34.3968 27.7228 34.3509 27.7228 34.2764Z" fill="#282D30"/>
<path d="M28.4455 35.822H28.6863V34.7954C28.7522 34.7179 28.8469 34.652 28.9559 34.652C29.1021 34.652 29.2512 34.7466 29.2512 35.0134V35.822H29.4922V35.0134C29.4922 34.6262 29.2656 34.5316 29.0362 34.5316C28.8756 34.5316 28.7522 34.5976 28.6863 34.6663H28.672C28.6433 34.5976 28.5831 34.5574 28.4455 34.5574H28.2017V34.6119H28.2562C28.4168 34.6119 28.4455 34.7179 28.4455 34.8814V35.822Z" fill="#282D30"/>
<path d="M30.6708 34.5316C30.2723 34.5316 30.0801 34.827 30.0801 35.1912C30.0801 35.5525 30.2723 35.8478 30.6708 35.8478C30.8859 35.8478 31.0465 35.7704 31.1698 35.5668L31.1153 35.5266C31.0207 35.6614 30.9146 35.7417 30.7253 35.7417C30.4558 35.7417 30.3353 35.4979 30.3353 35.1912C30.3353 34.8814 30.4558 34.6377 30.7253 34.6377C30.9146 34.6377 31.0608 34.7466 31.0752 34.9732H31.1296C31.1296 34.7725 31.1296 34.6922 31.0608 34.6262C30.9949 34.5574 30.8629 34.5316 30.6708 34.5316Z" fill="#282D30"/>
<path d="M32.7411 35.1223C32.7411 34.7438 32.5691 34.5316 32.202 34.5316C31.8665 34.5316 31.6658 34.827 31.6658 35.1912C31.6658 35.5525 31.8522 35.8478 32.2278 35.8478C32.4343 35.8478 32.592 35.7704 32.7125 35.5668L32.6609 35.5266C32.5662 35.6614 32.4572 35.7417 32.2823 35.7417C32.0557 35.7417 31.921 35.5266 31.921 35.2313H32.7354L32.7411 35.1223ZM31.921 35.1223C31.921 34.8441 32.0414 34.6377 32.202 34.6377C32.3942 34.6377 32.4831 34.8097 32.4831 35.1223H31.921Z" fill="#282D30"/>
<path d="M33.4379 35.5668C33.3606 35.5668 33.2947 35.6326 33.2947 35.7099C33.2947 35.7929 33.3606 35.8587 33.4379 35.8587C33.5151 35.8587 33.5839 35.7929 33.5839 35.7099C33.5839 35.6326 33.5208 35.5668 33.4379 35.5668Z" fill="#282D30"/>
<path d="M35.2791 35.713C35.7751 35.237 36.2311 34.9646 36.2311 34.5029C36.2311 34.0756 35.9099 33.9925 35.6949 33.9925C35.4798 33.9925 35.2791 34.09 35.1816 34.2075C35.1185 34.2907 35.1185 34.4197 35.1185 34.5574H35.1729C35.2246 34.2591 35.3995 34.1014 35.6146 34.1014C35.801 34.1014 35.9645 34.2362 35.9645 34.5029C35.9645 34.9073 35.6547 35.1395 35.0898 35.6873V35.822H36.0447C36.2311 35.822 36.2741 35.713 36.2741 35.6069V35.432H36.2196C36.2196 35.6213 36.0992 35.713 35.8842 35.713H35.2791Z" fill="#282D30"/>
<path d="M37.4756 34.1014C37.7681 34.1014 37.8541 34.371 37.8541 34.933C37.8541 35.4979 37.7681 35.7675 37.4756 35.7675C37.1831 35.7675 37.0999 35.4979 37.0999 34.933C37.0999 34.371 37.1831 34.1014 37.4756 34.1014ZM37.4756 33.9925C37.0053 33.9925 36.8303 34.3681 36.8303 34.933C36.8303 35.5008 37.0053 35.8736 37.4756 35.8736C37.9459 35.8736 38.1208 35.5008 38.1208 34.933C38.1208 34.3681 37.9459 33.9925 37.4756 33.9925Z" fill="#282D30"/>
<path d="M39.136 34.047H39.0012L38.5854 34.4226L38.6342 34.4857L38.8952 34.3165V35.822H39.136V34.047Z" fill="#282D30"/>
<path d="M40.4378 34.1014C40.7332 34.1014 40.8163 34.371 40.8163 34.933C40.8163 35.4979 40.7332 35.7675 40.4378 35.7675C40.1453 35.7675 40.0621 35.4979 40.0621 34.933C40.0621 34.371 40.1453 34.1014 40.4378 34.1014ZM40.4378 33.9925C39.9703 33.9925 39.7954 34.3681 39.7954 34.933C39.7954 35.5008 39.9703 35.8736 40.4378 35.8736C40.908 35.8736 41.083 35.5008 41.083 34.933C41.083 34.3681 40.908 33.9925 40.4378 33.9925Z" fill="#282D30"/>
<path d="M66.2536 34.043H66.6874L69.808 24.9148L73.0187 34.043H73.4527L78.4155 19.518H77.4844L73.7764 30.4218L70.8727 22.0545C70.0049 19.538 68.3562 19.301 67.1647 19.301C66.9678 19.301 66.5339 19.3444 66.4271 19.3444V19.7783C67.7254 19.8851 68.2261 20.4057 68.8101 22.0545L69.3307 23.5497L67.0112 30.4218L64.1075 22.0545C63.2397 19.538 61.591 19.301 60.3995 19.301C60.2025 19.301 59.7687 19.3444 59.6619 19.3444V19.7783C60.9636 19.8851 61.4608 20.4057 62.0482 22.0545L66.2536 34.043Z" fill="black"/>
<path d="M92.3329 24.0704C92.3329 22.7687 92.3329 21.4904 91.7929 20.8163C91.012 19.8651 89.2126 19.084 86.8066 19.084C83.0982 19.084 80.0845 22.5518 80.0845 26.8906C80.0845 30.9857 82.6844 34.2599 86.8066 34.2599C89.386 34.2599 91.3819 33.3921 92.7669 30.6821L92.3329 30.3583C91.1188 32.3308 89.6236 33.3921 87.4568 33.3921C83.749 33.3921 82.2538 30.1213 82.2538 26.8906C82.2538 21.7073 84.6169 19.9519 87.4568 19.9519C89.8636 19.9519 91.3589 21.2302 91.9023 24.0704H92.3329Z" fill="black"/>
<path d="M99.8559 26.9974C102.566 26.9974 103.974 28.0587 103.974 30.0312C103.974 32.007 102.479 33.0684 99.8559 33.0684C99.1852 33.0684 98.4675 32.9582 97.7968 32.7647V26.9974H99.8559ZM97.7968 26.1296V20.4925C98.2308 20.3824 98.881 20.2756 99.4218 20.2756C101.158 20.2756 103.327 21.12 103.327 23.2026C103.327 25.1551 101.568 26.1296 99.8559 26.1296H97.7968ZM93.8955 19.518V19.9519H94.3253C95.6274 19.9519 95.8444 20.8163 95.8444 22.1179V33.826H100.183C102.893 33.826 106.144 33.1752 106.144 29.9244C106.144 28.1688 105.386 26.9106 102.566 26.4567C104.539 25.7826 105.386 24.6111 105.386 23.3094C105.386 19.9519 101.808 19.518 99.5321 19.518H93.8955Z" fill="black"/>
<path d="M125.655 24.0704C125.655 22.7687 125.655 21.4904 125.115 20.8163C124.334 19.8651 122.535 19.084 120.129 19.084C116.42 19.084 113.406 22.5518 113.406 26.8906C113.406 30.9857 116.006 34.2599 120.129 34.2599C122.708 34.2599 124.7 33.3921 126.089 30.6821L125.655 30.3583C124.441 32.3308 122.946 33.3921 120.775 33.3921C117.071 33.3921 115.573 30.1213 115.573 26.8906C115.573 21.7073 117.939 19.9519 120.775 19.9519C123.186 19.9519 124.681 21.2302 125.222 24.0704H125.655Z" fill="black"/>
<path d="M141.221 33.3921C140.006 33.2853 139.509 32.7413 138.838 31.116L134.066 19.518H133.418L127.344 33.826H128.322L130.058 29.7075H136.128L136.669 31.116C137.6 33.6325 139.379 33.9362 140.354 33.9362C140.681 33.9362 140.985 33.8928 141.221 33.826V33.3921ZM133.092 22.5518L135.694 28.8397H130.381L133.092 22.5518Z" fill="black"/>
<path d="M140.981 19.518V19.9519H141.415C142.717 19.9519 142.934 20.8163 142.934 22.1179V33.826H144.886V26.9974H149.786V26.1296H144.886V20.3824H148.33C150.066 20.3824 151.044 21.1434 151.044 22.8788H151.478V21.2502C151.478 20.3824 151.131 19.518 149.636 19.518H140.981Z" fill="black"/>
<path d="M152.409 19.518V19.9519H152.84C154.141 19.9519 154.358 20.8163 154.358 22.1179V33.826H161.841C162.706 33.826 163.226 33.4155 163.466 32.7413L164.224 30.6821L163.79 30.5753C163.119 32.3108 162.078 32.9582 160.106 32.9582H156.31V26.8906H162.165V26.0228H156.31V20.3824H160.342C162.078 20.3824 163.053 21.1434 163.053 22.8788H163.487V21.2502C163.487 20.3824 163.14 19.518 161.645 19.518H152.409Z" fill="black"/>
</g>
<defs>
<clipPath id="clip0_74_2">
<rect width="164.901" height="58.1" fill="white"/>
</clipPath>
</defs>
</svg>
